<svg xmlns="http://www.w3.org/2000/svg" width="361" height="361" style="shape-rendering:geometricPrecision;text-rendering:geometricPrecision;image-rendering:optimizeQuality;fill-rule:evenodd;clip-rule:evenodd"><path style="opacity:.871" fill="#FFFFFF" d="M173.5-.5h11c3.596.93 5.93 3.263 7 7a121.86 121.86 0 0 1 1 22 4.932 4.932 0 0 1 3 .5c41.004 47.693 74.67 100.693 101 159a1084.75 1084.75 0 0 1 19 53.5 112.138 112.138 0 0 1 5 26c0 1.333.667 2 2 2a1175.06 1175.06 0 0 0 9 40.5 77.98 77.98 0 0 1 1 14.5c.358 3.189 1.025 6.189 2 9a386.583 386.583 0 0 0 3 27h-20a952.713 952.713 0 0 0-18.5-103 4152.92 4152.92 0 0 1-22.5-64.5 730.772 730.772 0 0 0-45-83.5 1045.734 1045.734 0 0 0-38-51c-.502 3.866-1.502 7.533-3 11l18.5 23a417.075 417.075 0 0 0 23.5 35 223.18 223.18 0 0 0 20 35.5c14.949 29.418 27.616 59.918 38 91.5a2606.486 2606.486 0 0 0 9.5 38 118.124 118.124 0 0 1 1.5 19 4.934 4.934 0 0 1 3 .5c-6.788 3.103-12.788 7.436-18 13-1.635.54-2.968.04-4-1.5-7.825-32.207-19.159-63.04-34-92.5a15937.841 15937.841 0 0 0-19-35 256.151 256.151 0 0 1-18.5-26.5c-6.831-6.489-12.497-13.823-17-22-.19 20.376-.69 40.71-1.5 61 .683 1.676 2.017 2.343 4 2 17.865 14.701 33.531 31.535 47 50.5a244.46 244.46 0 0 0 15.5 26.5 281.45 281.45 0 0 1 12.5 34.5 144.994 144.994 0 0 1 3 27.5c-.982 3.462-1.315 7.129-1 11h-17c.222-15.054-2.445-29.554-8-43.5-11.476-31.171-28.81-58.337-52-81.5l-2 27-3 6a33.753 33.753 0 0 1-11.5 4 46.316 46.316 0 0 1-11-4 40.596 40.596 0 0 1-5-8l-1-28a127.236 127.236 0 0 1-18.5 22 1876.788 1876.788 0 0 0-23 34.5 1019.185 1019.185 0 0 0-9 23.5c-3.686 5.073-6.02 10.74-7 17a112.104 112.104 0 0 0-3 31h-21c.633-21.301 4.966-41.801 13-61.5a1243.76 1243.76 0 0 0 13-25.5 771.032 771.032 0 0 0 15.5-23 1343.255 1343.255 0 0 1 29.5-33 177.828 177.828 0 0 0 9-5.5 12.93 12.93 0 0 1 5-.5c.333-17.679 0-35.346-1-53l-2-6a167.275 167.275 0 0 0-26 34l-3 2a71.901 71.901 0 0 1-7 10.5 1780.512 1780.512 0 0 1-28 52.5 719.698 719.698 0 0 0-24.5 80c-1.044-1.123-1.71-2.456-2-4A569.744 569.744 0 0 0 55.5 311c6.2-35.817 16.2-70.484 30-104 21.429-48.447 48.095-93.281 80-134.5a18.95 18.95 0 0 1 5-3 26.596 26.596 0 0 0-3.5-2l-1-12a28.907 28.907 0 0 1-1.5 4c-42.33 51.236-74.663 108.736-97 172.5a650.609 650.609 0 0 0-20 80l.5 2.5c.67-.752 1.504-1.086 2.5-1-.644 1.978-1.978 3.311-4 4a560.014 560.014 0 0 0-5 43h-20a312.031 312.031 0 0 1 4.5-46c4.382-18.99 8.882-37.99 13.5-57 1.843-1.779 2.51-4.112 2-7a232.684 232.684 0 0 1 9-28c1.676-.683 2.343-2.017 2-4 .09-2.196.423-4.363 1-6.5a355.96 355.96 0 0 0 15-36.5c1.677-.683 2.343-2.017 2-4a305.662 305.662 0 0 0 18-36.5c6.265-8.046 11.431-16.879 15.5-26.5a475.52 475.52 0 0 0 23.5-35 356.536 356.536 0 0 1 17-21c1.676-.683 2.343-2.017 2-4a150.366 150.366 0 0 1 10.5-11 114.98 114.98 0 0 1 8.5-12 222.747 222.747 0 0 0 1.5-21c1.78-2.294 3.947-3.96 6.5-5Zm3 44h6c.166 6.01-.001 12.01-.5 18-1.444 1.655-3.278 2.322-5.5 2 .458-2.894-.209-5.394-2-7.5a4.451 4.451 0 0 0 2-1.5c-2.505-3.656-2.505-7.322 0-11Zm-8 39c.79 1.109 1.29 2.442 1.5 4 .667 8 .667 16 0 24a1303.624 1303.624 0 0 0-7 9c-.351-4.056-1.685-7.723-4-11-1.184-3.949-1.518-7.949-1-12a299.043 299.043 0 0 0 10.5-14Zm24 2c4.284 3.868 7.617 8.534 10 14a525.525 525.525 0 0 1-8 21c-.779-2.566-2.279-4.566-4.5-6-.5-8.994-.666-17.994-.5-27 1.679.215 2.679-.452 3-2Zm17 24c6.046 6.068 10.046 13.401 12 22-1.536 7.873-4.369 15.207-8.5 22a137.881 137.881 0 0 1-13.5-14.5c3.46-9.813 6.793-19.646 10-29.5Zm-61 1a422.36 422.36 0 0 1 8 16.5 47.474 47.474 0 0 0 3 11 145.26 145.26 0 0 1-12 15.5c-2.936-3.407-5.269-7.241-7-11.5a36.302 36.302 0 0 0-4-11 492.2 492.2 0 0 1 12-20.5Zm29 11c2.706.075 5.373.408 8 1a2336.3 2336.3 0 0 0-2 134c-1.967-.239-3.801.094-5.5 1l-2.5-3c-.68-42.181-1.347-84.348-2-126.5a47.499 47.499 0 0 0 1-5.5c1.291.237 2.291-.096 3-1Zm-50 19c1.811.072 3.144.905 4 2.5a315.744 315.744 0 0 0 9 19.5 269.646 269.646 0 0 0-10 16 25.965 25.965 0 0 1-5 5 103.08 103.08 0 0 1-9-19.5 71.9 71.9 0 0 1 10-19c.648-1.44.981-2.94 1-4.5Zm101 1c1.6.752 3.1 1.752 4.5 3 1.332 3.083 3.165 5.749 5.5 8a91.087 91.087 0 0 0 4 10 97.502 97.502 0 0 1-10.5 22 145.828 145.828 0 0 0-13.5-21 128.016 128.016 0 0 0 10-22Zm19 32c1.701 1.025 3.035 2.525 4 4.5a235.998 235.998 0 0 0 10 20 238.374 238.374 0 0 1-7 16c-.598 1.301-1.598 2.135-3 2.5a543.76 543.76 0 0 0-14-23.5 87.027 87.027 0 0 0 10-19.5Zm-139 3h4a122.327 122.327 0 0 0 7 16 96.4 96.4 0 0 0-6 9.5 11.187 11.187 0 0 0-1 4.5h-3c-1.916 3.747-3.249 7.747-4 12a66.656 66.656 0 0 0-3.5-5 106.237 106.237 0 0 0-4.5-12.5 785.294 785.294 0 0 1 11-24.5Zm158 34a52.034 52.034 0 0 0 7 13.5 127.939 127.939 0 0 1-12 13.5 245.438 245.438 0 0 0-3-9.5 337.777 337.777 0 0 1 8-17.5Zm-175 3c3.822 4.882 6.822 10.382 9 16.5a24.07 24.07 0 0 1-4 8.5c-1.488-1.649-2.488-3.649-3-6-2.895-2.059-5.229-4.559-7-7.5a270.254 270.254 0 0 0 5-11.5Zm-10 23c1.175-.219 2.175.114 3 1a80.61 80.61 0 0 1 6 13c-.116 2.052-1.116 3.385-3 4-4.218-2.55-6.885-6.216-8-11a53.638 53.638 0 0 1 2-7Zm194 0c.876-.131 1.543.202 2 1a33.083 33.083 0 0 0 4 8.5 34.236 34.236 0 0 0-11 10.5c-.484-3.126-1.817-5.793-4-8a153.516 153.516 0 0 1 9-12Zm7 21c.617.111 1.117.444 1.5 1a34.251 34.251 0 0 0 1.5 8 110.817 110.817 0 0 1 8 20.5 58.73 58.73 0 0 1-10.5 13.5 383.25 383.25 0 0 1-5.5-29.5 7.297 7.297 0 0 0-2-3.5c1.937-1.54 3.104-3.54 3.5-6 1.011-.837 2.178-1.17 3.5-1v-3Zm-206 1c3.237 2.208 4.904 5.375 5 9.5-2.865 9.526-4.199 19.359-4 29.5-1.478.262-2.811-.071-4-1a21.955 21.955 0 0 0-6-7.5 27.314 27.314 0 0 1-1-3.5c1.603-9.797 4.936-18.797 10-27Zm9 1c.06-.543.393-.876 1-1 1.13 1.574 1.297 3.241.5 5-.21-1.558-.71-2.891-1.5-4Zm208 40c1.431.381 2.264 1.381 2.5 3a16.242 16.242 0 0 1 0 8c-1.53 1.42-3.363 2.42-5.5 3a7.293 7.293 0 0 1-2 3c-1.067-2.797-1.067-5.631 0-8.5a49.414 49.414 0 0 0 5-8.5Zm-230 2c3.636 2.947 6.303 6.78 8 11.5-.13 1.059-.63 1.892-1.5 2.5-3.667-1.836-6.5-4.502-8.5-8 1.255-1.834 1.921-3.834 2-6Z"/><path style="opacity:.176" fill="#FFFFFF" d="M146.5 48.5c.343 1.983-.324 3.317-2 4 .489-1.495 1.155-2.828 2-4Z"/><path style="opacity:.122" fill="#FFFFFF" d="M70.5 171.5c.343 1.983-.323 3.317-2 4 .489-1.495 1.155-2.829 2-4Z"/><path style="opacity:.027" fill="#FFFFFF" d="M192.5 208.5c1.495.489 2.829 1.155 4 2-1.983.343-3.317-.324-4-2Z"/><path style="opacity:.176" fill="#FFFFFF" d="M52.5 218.5c.343 1.983-.324 3.317-2 4-.343-1.983.324-3.317 2-4Z"/><path style="opacity:.071" fill="#FFFFFF" d="M41.5 250.5c.51 2.888-.157 5.221-2 7a68.024 68.024 0 0 1 2-7Z"/><path style="opacity:.059" fill="#FFFFFF" d="M320.5 267.5c1.333 0 2 .667 2 2 0-1.333-.667-2-2-2Z"/><path style="opacity:.008" d="M50.5 312.5c1.333.667 1.333.667 0 0Z"/><path style="opacity:.008" fill="#FFFFFF" d="M306.5 312.5c1.333.667 1.333.667 0 0Z"/><path style="opacity:.012" fill="#FFFFFF" d="M332.5 324.5c1.888 2.488 2.555 5.488 2 9-.975-2.811-1.642-5.811-2-9Z"/><path style="opacity:.157" fill="#FFFFFF" d="M274.5 349.5c.982 3.462 1.315 7.129 1 11h-2c-.315-3.871.018-7.538 1-11Z"/></svg>