<svg xmlns="http://www.w3.org/2000/svg" width="361" height="361" style="shape-rendering:geometricPrecision;text-rendering:geometricPrecision;image-rendering:optimizeQuality;fill-rule:evenodd;clip-rule:evenodd"><path style="opacity:.933" fill="#FFFFFF" d="M-.5-.5h359v361H-.5V-.5Zm84 19c27.659.788 55.326 1.122 83 1v9c-13.683-.332-27.35 0-41 1-1.93 8.467-2.597 17.134-2 26-10.672-.166-21.339 0-32 .5-.906 1.7-1.24 3.533-1 5.5h-3c.219 1.175-.114 2.175-1 3l-1-1a334.19 334.19 0 0 0 1-36h-9c-.023 7.175.31 14.342 1 21.5-3.567 1.707-3.734 3.54-.5 5.5a25.249 25.249 0 0 1 0 10c-1.572 3.939-3.405 7.606-5.5 11h-3v3a23.795 23.795 0 0 0-6 2.5c-7.66.5-15.326.666-23 .5v-6c9.213 2.073 17.88.74 26-4 1.797-1.195 2.797-2.862 3-5h3a96.938 96.938 0 0 1 1-16h-3a50.441 50.441 0 0 0-.5-10 70.729 70.729 0 0 0-11-9 47.731 47.731 0 0 0-18.5 0c-.307 4.215-2.64 6.215-7 6a154.603 154.603 0 0 0-5 16c1.602 2.737 2.436 5.737 2.5 9a546.718 546.718 0 0 0 1.5 33c1.45 1.35 2.117 3.016 2 5 1.983-.117 3.65.55 5 2 6.307.831 12.64 1.331 19 1.5.457.414.79.914 1 1.5a189.935 189.935 0 0 1-21 2.5c-1.58.707-3.08 1.54-4.5 2.5-.5 16.663-.667 33.33-.5 50h-14a100.406 100.406 0 0 1 2-27 49.43 49.43 0 0 1-2-12.5 654.367 654.367 0 0 0 2-24c-.032-4.92-.7-9.586-2-14 1.078-.674 1.745-1.674 2-3a56.84 56.84 0 0 1-2-13 514.708 514.708 0 0 0 2-26.5 84.917 84.917 0 0 0-2-17.5 9.265 9.265 0 0 1 2-2.5c20.83-.667 41.496-1.333 62-2Zm93 0h7v34h-7v-34Zm16 1h145v141a54.968 54.968 0 0 1-12-1c-.29-8.542.043-17.042 1-25.5a90.134 90.134 0 0 0-3.5-21.5 27.358 27.358 0 0 0-7.5-4.5l-15-1a4.457 4.457 0 0 1-2-1.5c6.325-.888 12.658-1.722 19-2.5a12.403 12.403 0 0 1 4-2.5c5.711-6.846 8.045-14.846 7-24 .898-10.52.898-21.02 0-31.5-5.445-12.818-15.111-17.485-29-14-2.091 1.726-4.424 2.893-7 3.5-1.029 2.88-2.695 5.38-5 7.5-.475 3.94-1.808 7.44-4 10.5 3.473 19.43 14.806 26.93 34 22.5.724-1.338 1.39-1.505 2-.5-.51 2.73-1.844 4.897-4 6.5-8 .667-16 .667-24 0a22.154 22.154 0 0 1-5-8.5 26.035 26.035 0 0 0-4.5-4 4.934 4.934 0 0 1-.5-3c-5.286-1.197-9.62-3.864-13-8a536.38 536.38 0 0 0-34-2 230.115 230.115 0 0 1 0-25 240.302 240.302 0 0 0-42-2v-9Zm-128 27c-1.413 2.719-2.08 5.719-2 9-2.589 2.638-5.589 4.805-9 6.5a30.499 30.499 0 0 1-11 0c-1.005-1.507-2.338-2.673-4-3.5l2-2a25.97 25.97 0 0 0-5-5 54.304 54.304 0 0 1 7-12c4.746-4.7 9.746-5.033 15-1a39.463 39.463 0 0 1 7 8Zm242-11c13.206 3.58 16.54 11.58 10 24-8.198 7.062-15.532 6.229-22-2.5-2.029-6.604-.696-12.438 4-17.5 3.048-.963 5.714-2.296 8-4Zm-173 2h5a112.97 112.97 0 0 1-.5 15c-1.113 1.211-2.28 1.211-3.5 0a57.15 57.15 0 0 1-1-15Zm13 0h20v15h-18c-1.635-4.821-2.302-9.821-2-15Zm46 0h18v15a73.122 73.122 0 0 1-17-1 53.775 53.775 0 0 1-1-14Zm27 0h5a112.97 112.97 0 0 1-.5 15c-1.299.466-2.799.466-4.5 0v-15Zm-84 22c29.335-.167 58.669 0 88 .5A102.318 102.318 0 0 0 239 73.5a87.45 87.45 0 0 1 7.5 10c.825.886 1.825 1.219 3 1v3c3.088-.303 4.754 1.03 5 4h3c-.219 1.175.114 2.175 1 3 4.392 2.724 7.725 6.391 10 11a238.705 238.705 0 0 0 27 25c-2.333 1.333-4.667 1.333-7 0a156.246 156.246 0 0 0-28-27.5l-36-37-3-1a1849.158 1849.158 0 0 0-86 0 85.178 85.178 0 0 1-12 10 146.22 146.22 0 0 0-11 13 4.932 4.932 0 0 1-3 .5c-.229 1.933-1.062 3.6-2.5 5a20050.302 20050.302 0 0 0-38 38 10.255 10.255 0 0 1-1.5 4c-.827-1.662-1.993-2.995-3.5-4-.595-1.399-.428-2.732.5-4a110.722 110.722 0 0 0 17-12 28.854 28.854 0 0 0 1.5-4l25-24c8.064-10.563 17.231-19.896 27.5-28Zm-31 13c1.984-.117 3.65.55 5 2a1037.8 1037.8 0 0 0-30 31c-.401-4.362.932-8.362 4-12a163.694 163.694 0 0 0 21-21Zm39 0c24.045-.323 48.045.01 72 1a6073.3 6073.3 0 0 1 65.5 68c.667 26 .667 52 0 78a1373.417 1373.417 0 0 1-66.5 68 630.782 630.782 0 0 1-71 0c-19.333-20-39-39.667-59-59-1.242-3.901-3.575-6.901-7-9-1.333-26-1.333-52 0-78a1003.537 1003.537 0 0 1 61.5-63 4.934 4.934 0 0 0 .5-3c2.119.032 3.452-.968 4-3Zm106 0c1.699-.16 3.366.007 5 .5a904.278 904.278 0 0 0 25 25.5c1.147 2.265 1.314 4.598.5 7-5.218-7.552-11.718-13.719-19.5-18.5-4-4.667-8.333-9-13-13 .916-.278 1.582-.778 2-1.5Zm-207 44a86.773 86.773 0 0 1 18 1l1 3.5a50.616 50.616 0 0 0-5 10.5c-4.35 1.189-8.683 1.189-13 0a57.124 57.124 0 0 1-1-15Zm268 0h4v15h-13a155.744 155.744 0 0 0-5-13c4.817-.667 9.483-1.334 14-2Zm-265 22c4.07-.266 8.07.067 12 1a50.501 50.501 0 0 1 0 20 40.285 40.285 0 0 1-12 1 204.826 204.826 0 0 1 0-22Zm256 1h13c.425 7.165-.242 14.165-2 21h-11v-21Zm-259 25c6.858-.476 13.524.357 20 2.5.944 2.719 1.277 5.552 1 8.5h-22a39.704 39.704 0 0 1 1-11Zm259 0a49.87 49.87 0 0 1 14 1l2 2c-1.723 2.368-2.39 5.034-2 8a97.59 97.59 0 0 1-14 .5c-1.229-3.8-1.229-7.633 0-11.5Zm-278 15c3.079-.24 6.079.093 9 1 1 23.657 1.333 47.324 1 71h25v17c2.687-.159 5.02.675 7 2.5a52.455 52.455 0 0 1 8 12.5 127.97 127.97 0 0 1 19 19 86.773 86.773 0 0 0 18 1c.126 8.824 1.959 17.157 5.5 25a4.934 4.934 0 0 0 .5-3c3.491-.017 6.158 1.483 8 4.5 13.996.5 27.996.667 42 .5v7c-1.929-.269-3.595.231-5 1.5a3063.46 3063.46 0 0 1-140 1c-1.233-1.698-1.9-3.698-2-6 1.138-4.846 1.138-9.679 0-14.5a53.638 53.638 0 0 1 2-7 36.877 36.877 0 0 1 12 1 48.083 48.083 0 0 1 9 7.5c11.911 5.317 22.578 3.484 32-5.5 1.979-6.178 2.479-12.512 1.5-19a72.01 72.01 0 0 1-5.5-10 135.496 135.496 0 0 0-10-5c-6.264-1.271-12.264-.438-18 2.5a54.015 54.015 0 0 1-8.5 8.5 4.932 4.932 0 0 0-.5 3 46.755 46.755 0 0 1-13-1 6259.952 6259.952 0 0 1-1-114c1.599.268 2.932-.066 4-1Zm305 0h9v116h-12c-3.217-9.691-10.05-14.691-20.5-15-11.329.872-18.163 6.706-20.5 17.5.1 2.302.767 4.302 2 6l-2 1a38.026 38.026 0 0 1 2.5 6.5c2.109.535 2.609 1.535 1.5 3 .365 3.254 2.031 5.421 5 6.5a121.19 121.19 0 0 0 22 0l13-9a40.914 40.914 0 0 1 9-.5v28a787.156 787.156 0 0 1-93-1 446.304 446.304 0 0 1-51 .5c-1.333-2.667-1.333-5.333 0-8 14.329-.5 28.663-.667 43-.5v-3h11a78.516 78.516 0 0 1 0-23 182.468 182.468 0 0 1 19-1.5 88.557 88.557 0 0 1 7.5-4.5c.04-3.705 1.873-5.872 5.5-6.5-1.211-1.113-1.211-2.28 0-3.5a112.492 112.492 0 0 1 17.5-18c.556-6.335 1.056-12.668 1.5-19 9.432.622 18.599-.044 27.5-2a832.22 832.22 0 0 1 2.5-70Zm-284 4c3.602.534 7.102.534 10.5 0a94.8 94.8 0 0 1 1.5 23h-12v-23Zm257 2h13a91.123 91.123 0 0 1-1 19c-3.741 1.831-7.741 2.497-12 2v-21Zm-257 26h18c.508 2.676.675 5.343.5 8-5.33 1.177-7.497 4.51-6.5 10h-12a95.015 95.015 0 0 0-2-11c.297-2.512.963-4.845 2-7Zm254 0h17a135.044 135.044 0 0 1-2 17c-1.266-1.688-3.099-2.021-5.5-1-6.93-.187-9.096-3.521-6.5-10h-3v-6Zm-191 62a2.428 2.428 0 0 1-2-.5A179.29 179.29 0 0 0 83 250.5a22.332 22.332 0 0 1-4.5-6.5 16.23 16.23 0 0 1 1.5-3.5 92.95 92.95 0 0 0 20 22c.483.948.649 1.948.5 3 2.367.664 4.367 1.997 6 4a6.846 6.846 0 0 1 1 4Zm158-15a4.934 4.934 0 0 1 .5-3 391.832 391.832 0 0 1 13.5-13l1 2.5a36.347 36.347 0 0 1-3.5 5.5 157.416 157.416 0 0 0-11.5 8Zm0 0c0 2-1 3-3 3 0-2 1-3 3-3Zm-3 3c0 2-1 3-3 3 0-2 1-3 3-3Zm-3 3c-.203 1.544-.87 2.878-2 4a69.096 69.096 0 0 1-11 9 2.428 2.428 0 0 1 .5-2c4.173-3.702 8.339-7.368 12.5-11Zm-152 9c1.544.203 2.878.87 4 2a60.05 60.05 0 0 1 12 14c-4.499-4.609-9.499-8.776-15-12.5-.837-1.011-1.17-2.178-1-3.5Zm139 4c0 2-1 3-3 3 0-2 1-3 3-3Zm-3 3c0 2-1 3-3 3 0-2 1-3 3-3Zm-3 3c-.203 1.544-.87 2.878-2 4a69.096 69.096 0 0 1-11 9c4-4.667 8.333-9 13-13Zm-187 3c11.58 3.225 15.58 10.725 12 22.5a14.709 14.709 0 0 0-4 5 33.63 33.63 0 0 0-7.5 2.5 170.588 170.588 0 0 1-11.5-6c-5.114-12.402-1.447-20.402 11-24Zm250 0c13.859 2.638 18.192 10.638 13 24-4.08 3.104-8.746 5.104-14 6l-4-1a335.888 335.888 0 0 0-6-10c-1.157-3.284-1.324-6.618-.5-10 3.238-4.107 7.071-7.107 11.5-9Zm-180 3c2 0 3 1 3 3 0-2-1-3-3-3Zm3 3c2 0 3 1 3 3 0-2-1-3-3-3Zm3 3c1.422.25 2.422 1.083 3 2.5-1.654.196-2.654-.637-3-2.5Zm98 1c-.343 1.725-1.343 2.225-3 1.5.744-1.039 1.744-1.539 3-1.5Zm-107 13c1.193.47 1.86 1.47 2 3 .768 2.654.934 5.321.5 8-1.699.906-3.533 1.239-5.5 1a76.926 76.926 0 0 1-1-10c1.983.343 3.317-.324 4-2Zm56 0c2.579-.417 4.746.25 6.5 2 .5 13.329.667 26.663.5 40a51.569 51.569 0 0 0-7 1v-43Zm19 0a91.274 91.274 0 0 0 10 2.5c4.188 3.809 3.355 5.976-2.5 6.5a226.755 226.755 0 0 0-9.5-1c-.135-2.917.532-5.584 2-8Zm41 0h4v11h-4v-11Zm-101 2c1.888 2.488 2.555 5.488 2 9h-4c.058-3.164.724-6.164 2-9Zm14 0c4.993.416 9.993.749 15 1v4c-4.769 1.904-9.769 2.404-15 1.5-2.177-1.186-3.177-3.019-3-5.5 1.291.237 2.291-.096 3-1Zm73 1c1.248.834 1.915 2.167 2 4 .064 1.889-.436 3.556-1.5 5a40.914 40.914 0 0 1-.5-9Z"/><path style="opacity:.078" fill="#FFFFFF" d="M271.5 51.5c1.826 1.937 1.993 3.937.5 6a18.452 18.452 0 0 1-.5-6Z"/><path style="opacity:.11" fill="#FFFFFF" d="M64.5 46.5c.555 3.512-.112 6.512-2 9-.08-3.281.587-6.281 2-9Z"/><path style="opacity:.038" fill="#FFFFFF" d="M306.5 259.5c3.476-1.143 7.142-1.31 11-.5-3.68 1.511-7.346 1.677-11 .5Z"/><path style="opacity:.02" fill="#FFFFFF" d="M77.5 295.5a19.62 19.62 0 0 1 2 3.5l-1 .5c-.929-1.189-1.262-2.522-1-4Z"/><path style="opacity:.026" fill="#FFFFFF" d="M86.5 324.5c1.276.886 1.276 1.886 0 3-1.062-.925-1.062-1.925 0-3Z"/></svg>