<svg xmlns="http://www.w3.org/2000/svg" width="361" height="361" style="shape-rendering:geometricPrecision;text-rendering:geometricPrecision;image-rendering:optimizeQuality;fill-rule:evenodd;clip-rule:evenodd"><path style="opacity:.904" fill="#FFFFFF" d="M25.5-.5h21v6h25v-6h23a677.472 677.472 0 0 0 4 34v8h3c4.32 1.441 8.654 1.108 13-1a353.41 353.41 0 0 0 52 2c.454-4.862.621-9.862.5-15 6.987-7.214 14.654-7.88 23-2 2.18 5.427 3.013 11.093 2.5 17 21.011.333 42.011 0 63-1a7.292 7.292 0 0 0 2-3 102.295 102.295 0 0 1 4-21c1.849-3.923 2.182-7.923 1-12 1.575-1.614 2.241-3.614 2-6h21c-.841 1.88-1.175 3.88-1 6h29v-6h20a357.13 357.13 0 0 0-2.5 46 707.432 707.432 0 0 0-8.5 42c-1.676.683-2.343 2.017-2 4a167.24 167.24 0 0 1-2.5 18 17556.533 17556.533 0 0 0-21.5 84 1188.024 1188.024 0 0 1-31 81.5 603.861 603.861 0 0 1-19 35c-11.063 15.972-24.063 30.139-39 42.5-5.897 3.317-11.897 5.984-18 8h-20c-12.911-3.18-23.578-9.846-32-20-.825-.886-1.825-1.219-3-1v-3h-3a1342.2 1342.2 0 0 0-26.5-39 885.487 885.487 0 0 0-22-44 114.592 114.592 0 0 0-6.5-19c.475-2.582-.192-4.582-2-6a283.394 283.394 0 0 1-10-27c.536-3.198-.131-5.865-2-8a1075.407 1075.407 0 0 1-21-80c.603-5.119-.064-9.785-2-14a344.95 344.95 0 0 1-10-48c.63-7.743-.037-15.076-2-22a227.485 227.485 0 0 1-2-30Zm23 26c9.035.912 18.035.912 27 0a222.96 222.96 0 0 1 3 24c-5.011-.166-10.011 0-15 .5-2.104 1.836-2.438 4.002-1 6.5 1.272.546 2.606.88 4 1a68.163 68.163 0 0 1 14-1c1.385 5.662 1.718 11.33 1 17a74.203 74.203 0 0 1-12 1.5c-.88 1.356-1.213 2.856-1 4.5h16c-.106 5.874 1.227 11.374 4 16.5-5.481 1.45-11.148 1.95-17 1.5-.256 2.293.077 4.459 1 6.5 5.754.278 11.421.445 17 .5a192.604 192.604 0 0 0 4 17 49.2 49.2 0 0 0-15 3.5c-1.996 4.095-.83 6.595 3.5 7.5a1186.49 1186.49 0 0 1 14-4c1.352 2.094 1.852 4.427 1.5 7a756.968 756.968 0 0 1-26 9 781.897 781.897 0 0 1-10-34.5 772.214 772.214 0 0 0-7-35 463.246 463.246 0 0 1-6-49.5Zm234 0c5.015-.35 9.848.317 14.5 2 1.87-1.244 4.036-1.91 6.5-2l6 .5c1.078.674 1.745 1.674 2 3a748.716 748.716 0 0 1-21 105.5 41.535 41.535 0 0 0-1 9 16.873 16.873 0 0 1-8-1 219.657 219.657 0 0 0-19-6c-2.819-3.712-1.986-6.379 2.5-8 4.367.344 8.367 1.678 12 4 1.194-1.524 2.694-2.69 4.5-3.5l-2-4a324.46 324.46 0 0 1-13.5-5.5c-.444-5.779.889-11.112 4-16a19.405 19.405 0 0 1 9 4c3.057-.951 6.223-1.284 9.5-1v-7c-5.115-1.923-10.448-2.923-16-3a100.25 100.25 0 0 1 4-17c4.761 1.87 9.761 2.537 15 2a51.56 51.56 0 0 1-1-7 95.888 95.888 0 0 1-15-3.5c2.239-4.452 3.239-9.285 3-14.5a283.8 283.8 0 0 1 22 1c.676-4.014-.657-7.014-4-9a73.122 73.122 0 0 0-17-1 77.703 77.703 0 0 1 3-22Zm-105 6h5c.992 25.66 1.158 51.326.5 77-1.755 1.17-2.755 2.837-3 5-2.642-1.958-4.142-4.624-4.5-8a561.765 561.765 0 0 1 0-67 86.97 86.97 0 0 0 2-7Zm-75 29c7.008-.166 14.008 0 21 .5 1.933.251 3.766.751 5.5 1.5 6.093-1.311 12.426-1.978 19-2l18.5 1 1 2c-.166 5.875-1.166 11.709-3 17.5a286.183 286.183 0 0 0-38.5.5 691.107 691.107 0 0 0 0 44 45.577 45.577 0 0 1 5.5 13h4v-50h32v6h-27v55h-3a12.93 12.93 0 0 0 .5 5 201.98 201.98 0 0 0 16.5 31.5c16.711.818 33.378.652 50-.5a212.447 212.447 0 0 0 17-33.5 10.21 10.21 0 0 0-2.5-4.5c-.5-17.664-.667-35.33-.5-53-8.673.166-17.34 0-26-.5-1.692-1.4-2.359-3.234-2-5.5h33v50h4a106.116 106.116 0 0 1 5-13 368.746 368.746 0 0 0 .5-47 11.357 11.357 0 0 1-3.5 1.5c-12.329.5-24.662.666-37 .5v-20c12.338-.166 24.671 0 37 .5 1.266.31 2.433.81 3.5 1.5 8.23-1.952 16.73-2.618 25.5-2a811.39 811.39 0 0 0-7 30 1440.414 1440.414 0 0 0-13 44.5 1440.666 1440.666 0 0 1-28 62.5 481.12 481.12 0 0 1-62 0 3571.13 3571.13 0 0 1-24-50.5 2450.067 2450.067 0 0 1-19-65.5 96.859 96.859 0 0 1-3-21Zm47 40c5.676-.166 11.343.001 17 .5-.062 8.133 2.272 15.467 7 22a50.963 50.963 0 0 0 16-.5 10.776 10.776 0 0 1 2-6 57.15 57.15 0 0 0 1-15h16c-.63 11.09.037 21.923 2 32.5a634.887 634.887 0 0 1-61 1.5v-35Zm0 39a231.475 231.475 0 0 1 31 2 222.808 222.808 0 0 1 28-2 108.41 108.41 0 0 1-1 20.5 548.85 548.85 0 0 1-57-.5c-.997-6.634-1.33-13.3-1-20Zm104 18c6.784.714 12.951 3.047 18.5 7l1-3c2.252 2.427 5.086 3.427 8.5 3-1.657 8.313-3.323 16.646-5 25a156.76 156.76 0 0 0-9 27.5 33.196 33.196 0 0 1-3.5 6.5 37.763 37.763 0 0 0-4.5-6.5c-9.131-6.903-19.465-10.07-31-9.5 3.544-8.903 7.878-17.57 13-26l2.5-1a312.276 312.276 0 0 1 20 8c3.864-.825 5.697-3.158 5.5-7a64.334 64.334 0 0 0-7.5-4l-1 1c-.519-1.016-1.353-1.682-2.5-2a330.157 330.157 0 0 1-14-3.5 76.937 76.937 0 0 0 9-15.5Zm-155 1c2.644-.34 4.977.327 7 2 2.574 4.016 4.24 8.349 5 13a132.85 132.85 0 0 1-15 3c-1.987 1.827-4.32 2.827-7 3-1.001 5.657 1.332 7.99 7 7 3.35.628 5.683-.539 7-3.5a34.526 34.526 0 0 0 10.5-2.5l2.5 1a239.113 239.113 0 0 0 16 27.5 47.576 47.576 0 0 1-8.5-1.5c-3.794.805-7.127 2.472-10 5-8.471.759-14.304 5.092-17.5 13l-2-3a1401.441 1401.441 0 0 1-17-53.5c.451-2.285 1.785-3.785 4-4.5a228.089 228.089 0 0 0 12-2.5c2.52-.586 4.52-1.753 6-3.5Zm78 9h6v12h-6v-12Zm-56 47a12.93 12.93 0 0 1 5 .5 30.631 30.631 0 0 1 7 9.5 446.59 446.59 0 0 1-18 14 25.513 25.513 0 0 1-4-4.5 4.934 4.934 0 0 1 3-.5v-4h7c-.171-2.988 1.162-4.988 4-6-2.37-2.552-3.703-5.552-4-9Zm114 0a10.098 10.098 0 0 1 6 1.5 20.344 20.344 0 0 0-6 4.5c-1.333 1-1.333 2 0 3a44.59 44.59 0 0 0 12 6 41.73 41.73 0 0 0-1 9c-3.624-.552-6.957-1.885-10-4a35.69 35.69 0 0 0-7-5.5 18.397 18.397 0 0 1-4-7 82.216 82.216 0 0 0 10-7.5Zm-63 85c-.489-1.495-1.155-2.829-2-4-1.407-2.565-3.574-4.231-6.5-5a22.508 22.508 0 0 0-2-7 1407.355 1407.355 0 0 1-30.5-43 151.89 151.89 0 0 1 8.5-8 29.927 29.927 0 0 0 2-9c1.1 4.828 2.267 4.994 3.5.5 10.328-.5 20.661-.666 31-.5v11h-11a16.873 16.873 0 0 0 1 8c4.308.732 8.641 1.398 13 2a423.287 423.287 0 0 0 13-2 16.873 16.873 0 0 0 1-8c-9 1.667-12.667-2-11-11a222.065 222.065 0 0 1 33 1.5 56.07 56.07 0 0 1 4 8.5 30.564 30.564 0 0 1 8 7 76.57 76.57 0 0 0-6.5 13c-9.247 10.596-17.081 22.262-23.5 35a156.813 156.813 0 0 0-4 5c-.825.886-1.825 1.219-3 1 .223 2.614-.944 4.281-3.5 5-.5 9.327-.666 18.661-.5 28a13.116 13.116 0 0 0 7-1 84.04 84.04 0 0 1 9-9 155.17 155.17 0 0 0 14.5-19 75.783 75.783 0 0 1 7.5 7 144.575 144.575 0 0 1-27 30 101.027 101.027 0 0 1-16.5 7 139.527 139.527 0 0 0-13-4c-12.148-8.563-22.481-18.896-31-31-.667-1.333-.667-2.667 0-4 1.905-.658 3.405-1.825 4.5-3.5 1.333-.667 2.667-.667 4 0 5.67 6.84 11.337 13.673 17 20.5 3.25 1.254 5.917 3.254 8 6 1.189.929 2.522 1.262 4 1 .639-9.727-.028-19.06-2-28Zm-73-67c3.867 4.825 7.2 10.159 10 16 1.805 2.093 4.138 3.26 7 3.5.862 2.734 1.695 2.901 2.5.5a32.446 32.446 0 0 0 6.5 7 71.901 71.901 0 0 0 7 10.5 557.717 557.717 0 0 1 3 7.5c1.175-.219 2.175.114 3 1a2085.341 2085.341 0 0 1-14 10 1195.376 1195.376 0 0 0-26-54.5c.556-.383.89-.883 1-1.5Zm161 0c.876-.131 1.543.202 2 1a659.535 659.535 0 0 1-26.5 56 54.797 54.797 0 0 1-11.5-10c-.952-1.545-1.285-3.212-1-5h3c.406-3.416 2.073-6.082 5-8a111.251 111.251 0 0 0 5-10 4.457 4.457 0 0 1 1.5 2c.094-4.73 2.26-6.063 6.5-4 6.545-6.487 11.879-13.82 16-22Zm-57 70c.443-3.124 2.11-5.457 5-7 1.021.502 1.188 1.168.5 2-2.239 1.389-4.072 3.056-5.5 5Zm-48-2c1.526.605 2.526 1.771 3 3.5-1.978-.033-2.978-1.2-3-3.5Zm48 2c0 2-1 3-3 3 0-2 1-3 3-3Zm-44 3c.789.283 1.456.783 2 1.5-1.316.528-1.983.028-2-1.5Zm41 0c.125 3.108-1.208 5.108-4 6 .133-2.866 1.466-4.866 4-6Zm-4 6c-.23 2.483-.897 2.983-2 1.5.336-1.03 1.003-1.53 2-1.5Z"/><path style="opacity:.408" fill="#FFFFFF" d="M262.5 5.5c1.182 4.077.849 8.077-1 12l1-12Z"/><path style="opacity:.092" fill="#FFFFFF" d="M27.5 29.5c1.963 6.924 2.63 14.257 2 22-1.315-7.13-1.982-14.463-2-22Z"/><path style="opacity:.706" fill="#FFFFFF" d="M98.5 33.5c1.732 2.216 2.732 4.882 3 8h-3v-8Z"/><path style="opacity:.141" fill="#FFFFFF" d="M322.5 87.5c.343 1.983-.324 3.317-2 4-.343-1.983.324-3.317 2-4Z"/><path style="opacity:.071" fill="#FFFFFF" d="M39.5 99.5c1.936 4.215 2.603 8.881 2 14-1.301-4.443-1.968-9.109-2-14Z"/><path style="opacity:.263" fill="#FFFFFF" d="M62.5 193.5c1.869 2.135 2.536 4.802 2 8-1.031-2.461-1.698-5.127-2-8Z"/><path style="opacity:.09" fill="#FFFFFF" d="M74.5 228.5c1.808 1.418 2.475 3.418 2 6-.958-1.802-1.625-3.802-2-6Z"/><path style="opacity:.082" fill="#FFFFFF" d="M208.5 235.5a4.934 4.934 0 0 1 3 .5c-1.349.772-2.182 1.939-2.5 3.5a8.43 8.43 0 0 1-.5-4Z"/><path style="opacity:.008" fill="#FFFFFF" d="M163.5 261.5c-1.528-.017-2.028-.684-1.5-2 .717.544 1.217 1.211 1.5 2Z"/><path style="opacity:.2" fill="#FFFFFF" d="M169.5 295.5c.845 1.171 1.511 2.505 2 4-1.676-.683-2.343-2.017-2-4Z"/></svg>